<svg width="19" height="19" viewBox="0 0 19 19" fill="none" xmlns="http://www.w3.org/2000/svg">
<path d="M5.084 4.82C3.878 4.82 2.834 5.396 2.132 6.35V0.499999H0.332V14H2.132V12.65C2.834 13.604 3.878 14.18 5.084 14.18C7.55 14.18 9.404 12.254 9.404 9.5C9.404 6.746 7.55 4.82 5.084 4.82ZM4.868 6.476C6.434 6.476 7.604 7.682 7.604 9.5C7.604 11.318 6.434 12.524 4.868 12.524C3.302 12.524 2.132 11.318 2.132 9.5C2.132 7.682 3.302 6.476 4.868 6.476ZM15.3882 15.008L18.9342 5H17.1342L14.5422 12.542L11.9322 5H10.1322L13.6962 14.99C13.1202 16.394 12.5082 17.06 11.3742 17.06C10.9422 17.06 10.5282 16.97 10.1862 16.862V18.446C10.5282 18.554 11.0322 18.644 11.5362 18.644C13.7502 18.644 14.6322 17.15 15.3882 15.008Z" fill="white"/>
</svg>
