<svg width="393" height="60" viewBox="0 0 393 60" fill="none" xmlns="http://www.w3.org/2000/svg">
<path d="M10.6734 55.6646C4.46201 59.2117 0 56.2558 0 50.9982C0 45.4012 0 28.6076 0 28.6076C0 28.6076 0 11.8139 0 6.21697C0 0.959374 4.45925 -1.99649 10.6734 1.55054C20.3476 7.07362 49.3673 23.6483 49.3673 23.6483C53.2259 25.8515 53.2259 31.3609 49.3673 33.5641C49.3673 33.5669 20.3476 50.1416 10.6734 55.6646Z" fill="#00C1FF"/>
<path d="M42.6179 55.6641C36.4065 59.2112 31.9445 56.2553 31.9445 50.9977C31.9445 45.4008 31.9445 28.6071 31.9445 28.6071C31.9445 28.6071 31.9445 11.8135 31.9445 6.21648C31.9445 0.958886 36.4037 -1.99697 42.6179 1.55006C52.0789 6.95271 80.462 23.1634 80.462 23.1634C84.6998 25.5828 84.6998 31.6314 80.462 34.0508C80.4592 34.0508 52.0789 50.2615 42.6179 55.6641Z" fill="#6FE4FF"/>
<mask id="mask0_1_4507" style="mask-type:alpha" maskUnits="userSpaceOnUse" x="31" y="0" width="53" height="58">
<path d="M42.6179 55.6641C36.4065 59.2112 31.9445 56.2553 31.9445 50.9977C31.9445 45.4008 31.9445 28.6071 31.9445 28.6071C31.9445 28.6071 31.9445 11.8135 31.9445 6.21648C31.9445 0.958886 36.4037 -1.99697 42.6179 1.55006C52.0789 6.95271 80.462 23.1634 80.462 23.1634C84.6998 25.5828 84.6998 31.6314 80.462 34.0508C80.4592 34.0508 52.0789 50.2615 42.6179 55.6641Z" fill="#6FE4FF"/>
</mask>
<g mask="url(#mask0_1_4507)">
<g filter="url(#filter0_f_1_4507)">
<path d="M10.6734 55.6646C4.46201 59.2117 0 56.2558 0 50.9982C0 45.4012 0 28.6076 0 28.6076C0 28.6076 0 11.8139 0 6.21697C0 0.959374 4.45925 -1.99649 10.6734 1.55054C20.3476 7.07362 49.3673 23.6483 49.3673 23.6483C53.2259 25.8515 53.2259 31.3609 49.3673 33.5641C49.3673 33.5669 20.3476 50.1416 10.6734 55.6646Z" fill="#009EE4"/>
</g>
</g>
<path d="M104.246 38.5767L105.345 36.1107C106.078 34.4439 107.398 34.0088 109.084 35.2404C112.312 37.5613 117.59 39.302 124.632 39.302C130.647 39.302 133.213 37.7802 133.213 35.9657C133.213 33.9349 131.087 33.3547 127.566 32.9195L119.572 31.9068C109.964 30.6752 105.123 27.2651 105.123 21.3205C105.123 14.9408 110.404 9.86381 122.65 9.86381C129.47 9.86381 133.872 10.8792 136.731 11.9658C139.884 13.1974 140.324 14.2128 140.324 16.7526V20.015C140.324 22.0458 139.59 22.771 137.536 22.771H135.264C133.21 22.771 132.476 22.0458 132.476 20.015V18.9257C131.156 18.4905 127.857 17.8392 123.97 17.8392C117.225 17.8392 113.923 19.0708 113.923 21.1015C113.923 22.6233 115.902 23.4936 119.495 24.0027L127.342 25.0181C136.95 26.2497 142.009 29.0796 142.009 35.8945C142.009 42.8545 135.336 47.28 123.456 47.28C114.728 47.28 107.689 44.524 104.902 41.9869C103.878 41.0426 103.731 39.8083 104.246 38.5767Z" fill="black"/>
<path d="M190.798 46.6971L186.765 46.6971C184.786 46.6971 184.125 46.407 183.172 44.9564L175.547 33.861C174.448 32.3393 173.639 31.9753 171.367 31.9753H163.741V43.941C163.741 45.9718 163.008 46.6971 160.954 46.6971H158.02C155.966 46.6971 155.232 45.9718 155.232 43.941V7.90418H152.52C150.466 7.90418 149.732 7.1789 149.732 5.14812V2.75607C149.732 0.725282 150.466 0 152.52 0L160.954 0C163.008 0 163.741 0.725282 163.741 2.75607V23.8576H170.561C172.834 23.8576 173.642 23.4963 174.741 21.9719L181.121 12.2559C182.148 10.7341 182.807 10.444 184.789 10.444H188.822C191.022 10.444 191.463 12.1847 190.214 13.9965L183.1 24.6568C182.367 25.6722 181.487 26.7587 180.606 27.6291C181.487 28.3543 182.732 29.5859 183.247 30.3112L192.193 43.2185C193.439 44.9591 192.999 46.6971 190.798 46.6971Z" fill="black"/>
<path d="M204.683 53.3697V50.9776C204.683 48.9468 205.416 48.2215 207.47 48.2215H210.991C213.117 48.2215 214.144 47.7864 214.952 46.1196L215.392 45.1781L198.598 13.7803C197.572 11.8946 198.377 10.444 200.578 10.444H204.392C206.371 10.444 207.251 10.8053 207.985 12.1847L215.024 26.4686C216.637 29.731 218.47 33.5025 219.937 36.7648C221.404 33.5736 223.09 29.95 224.703 26.7587L231.889 12.1847C232.548 10.808 233.503 10.444 235.482 10.444H239.296C241.497 10.444 242.302 11.8946 241.275 13.7803L222.135 49.6748C219.934 53.8076 217.368 56.1284 211.647 56.1284H207.467C205.416 56.1257 204.683 55.4004 204.683 53.3697Z" fill="black"/>
<path d="M288.143 28.4255V29.2958C288.143 31.3266 287.41 32.0519 285.356 32.0519H255.287C256.314 35.8945 260.2 39.5921 268.488 39.5921C275.895 39.5921 279.269 37.2 280.808 36.1107C282.494 34.8791 283.667 35.3116 284.548 36.9811L285.793 39.3731C286.452 40.6047 286.087 41.549 284.985 42.4905C283.371 43.8671 277.871 47.2773 268.485 47.2773C255.871 47.2773 247.072 39.9533 247.072 28.4967C247.072 17.2562 255.506 9.86107 267.605 9.86107C279.709 9.86107 288.143 17.185 288.143 28.4255ZM255.287 25.018H280.003C279.05 21.2466 275.161 17.6941 267.607 17.6941C260.054 17.6941 256.239 21.2466 255.287 25.018Z" fill="black"/>
<path d="M341.621 27.1912V43.941C341.621 45.9718 340.888 46.6971 338.834 46.6971H335.9C333.846 46.6971 333.112 45.9718 333.112 43.941V27.4074C333.112 21.534 329.591 18.3427 323.651 18.3427C319.031 18.3427 313.531 21.17 310.816 24.1422V43.9383C310.816 45.9691 310.082 46.6943 308.029 46.6943H305.094C303.041 46.6943 302.307 45.9691 302.307 43.9383V18.3427H299.594C297.541 18.3427 296.807 17.6175 296.807 15.5867V13.1946C296.807 11.1638 297.541 10.4386 299.594 10.4386H306.708C308.762 10.4386 309.496 11.1638 309.496 13.1946V15.2254C313.457 12.0342 318.81 9.85833 324.603 9.85833C335.606 9.86107 341.621 16.3147 341.621 27.1912Z" fill="black"/>
<path d="M392.256 13.1974V47.135C392.256 54.6752 384.043 59.6071 373.555 59.6071C363.654 59.6071 358.963 56.7059 356.834 54.749C355.807 53.8075 355.66 52.5732 356.172 51.3416L357.271 48.8756C358.08 47.0638 359.397 46.6998 361.011 48.0053C363.577 50.0361 366.071 51.7029 373.478 51.7768C380.077 51.7768 383.744 49.3847 383.744 46.4836V43.0023C381.104 44.669 377.876 45.7583 373.256 45.7583C361.376 45.7583 353.161 38.8695 353.161 27.848C353.161 16.8265 361.373 9.86381 373.256 9.86381C378.388 9.86381 381.763 11.3144 384.038 13.055C384.625 11.8234 385.798 10.444 387.265 10.444H389.466C391.522 10.4413 392.256 11.1666 392.256 13.1974ZM383.75 33.6475V22.0458C381.696 19.5798 378.69 18.0581 373.262 18.0581C366.735 18.0581 361.969 21.7557 361.969 27.848C361.969 33.9404 366.735 37.564 373.262 37.564C378.615 37.5613 381.624 36.0396 383.75 33.6475Z" fill="black"/>
<defs>
<filter id="filter0_f_1_4507" x="-3.38361" y="-3.38312" width="59.0285" height="63.9816" filterUnits="userSpaceOnUse" color-interpolation-filters="sRGB">
<feFlood flood-opacity="0" result="BackgroundImageFix"/>
<feBlend mode="normal" in="SourceGraphic" in2="BackgroundImageFix" result="shape"/>
<feGaussianBlur stdDeviation="1.69181" result="effect1_foregroundBlur_1_4507"/>
</filter>
</defs>
</svg>
