<svg width="167" height="26" viewBox="0 0 167 26" fill="none" xmlns="http://www.w3.org/2000/svg">
<path d="M4.54417 23.8414C1.89969 25.3516 0 24.0931 0 21.8547C0 19.4718 0 12.322 0 12.322C0 12.322 0 5.17212 0 2.78923C0 0.550821 1.89851 -0.707627 4.54417 0.80251C8.66291 3.15394 21.018 10.2106 21.018 10.2106C22.6607 11.1486 22.6607 13.4942 21.018 14.4322C21.018 14.4334 8.66291 21.49 4.54417 23.8414Z" fill="#00C1FF"/>
<path d="M18.1453 23.8404C15.5008 25.3506 13.6011 24.0921 13.6011 21.8537C13.6011 19.4708 13.6011 12.321 13.6011 12.321C13.6011 12.321 13.6011 5.17114 13.6011 2.78825C13.6011 0.549844 15.4996 -0.708604 18.1453 0.801533C22.1733 3.1017 34.2573 10.0033 34.2573 10.0033C36.0615 11.0334 36.0615 13.6086 34.2573 14.6386C34.2561 14.6386 22.1733 21.5403 18.1453 23.8404Z" fill="#6FE4FF"/>
<mask id="mask0_1_4226" style="mask-type:alpha" maskUnits="userSpaceOnUse" x="13" y="0" width="23" height="25">
<path d="M18.1453 23.8404C15.5008 25.3506 13.6011 24.0921 13.6011 21.8537C13.6011 19.4708 13.6011 12.321 13.6011 12.321C13.6011 12.321 13.6011 5.17114 13.6011 2.78825C13.6011 0.549844 15.4996 -0.708604 18.1453 0.801533C22.1733 3.1017 34.2573 10.0033 34.2573 10.0033C36.0615 11.0334 36.0615 13.6086 34.2573 14.6386C34.2561 14.6386 22.1733 21.5403 18.1453 23.8404Z" fill="#6FE4FF"/>
</mask>
<g mask="url(#mask0_1_4226)">
<g filter="url(#filter0_f_1_4226)">
<path d="M4.54399 23.8414C1.89951 25.3516 -0.000183105 24.0931 -0.000183105 21.8547C-0.000183105 19.4718 -0.000183105 12.322 -0.000183105 12.322C-0.000183105 12.322 -0.000183105 5.17212 -0.000183105 2.78923C-0.000183105 0.550821 1.89833 -0.707627 4.54399 0.80251C8.66273 3.15394 21.0178 10.2106 21.0178 10.2106C22.6606 11.1486 22.6606 13.4942 21.0178 14.4322C21.0178 14.4334 8.66273 21.49 4.54399 23.8414Z" fill="#009EE4"/>
</g>
</g>
<path d="M44.3816 16.5655L44.8494 15.5156C45.1617 14.806 45.7239 14.6207 46.4415 15.1451C47.8156 16.1332 50.063 16.8743 53.061 16.8743C55.6218 16.8743 56.7142 16.2264 56.7142 15.4539C56.7142 14.5893 55.8092 14.3422 54.3102 14.157L50.9068 13.7258C46.8163 13.2015 44.7552 11.7496 44.7552 9.21873C44.7552 6.50259 47.0037 4.34109 52.2172 4.34109C55.121 4.34109 56.9947 4.77339 58.2121 5.23598C59.5544 5.76033 59.7417 6.19264 59.7417 7.27397V8.66292C59.7417 9.52752 59.4294 9.8363 58.555 9.8363H57.5875C56.7131 9.8363 56.4008 9.52752 56.4008 8.66292V8.19916C55.8386 8.01389 54.4339 7.73656 52.7793 7.73656C49.9074 7.73656 48.5015 8.26092 48.5015 9.12552C48.5015 9.77338 49.3441 10.1439 50.8738 10.3607L54.2147 10.793C58.3052 11.3173 60.4594 12.5222 60.4594 15.4236C60.4594 18.3868 57.6181 20.2709 52.5601 20.2709C48.8444 20.2709 45.8476 19.0975 44.6609 18.0174C44.2249 17.6154 44.1624 17.0899 44.3816 16.5655Z" fill="white"/>
<path d="M81.2311 20.0227H79.5141C78.6715 20.0227 78.3898 19.8992 77.9844 19.2816L74.7377 14.5578C74.2699 13.9099 73.9258 13.755 72.9582 13.755H69.7116V18.8493C69.7116 19.7139 69.3993 20.0227 68.5248 20.0227H67.2757C66.4012 20.0227 66.089 19.7139 66.089 18.8493V3.50678H64.9341C64.0596 3.50678 63.7473 3.198 63.7473 2.3334V1.31499C63.7473 0.450388 64.0596 0.141602 64.9341 0.141602L68.5248 0.141602C69.3993 0.141602 69.7116 0.450388 69.7116 1.31499V10.2989H72.6153C73.5828 10.2989 73.9269 10.1451 74.3948 9.49606L77.1112 5.3595C77.5484 4.71163 77.8288 4.58811 78.6726 4.58811H80.3897C81.3265 4.58811 81.5139 5.3292 80.9824 6.10058L77.9538 10.6391C77.6415 11.0714 77.2667 11.534 76.892 11.9046C77.2667 12.2134 77.797 12.7377 78.0162 13.0465L81.825 18.5417C82.3553 19.2828 82.168 20.0227 81.2311 20.0227Z" fill="white"/>
<path d="M87.1423 22.8636V21.8451C87.1423 20.9805 87.4546 20.6718 88.329 20.6718H89.828C90.7331 20.6718 91.1703 20.4865 91.5144 19.7769L91.7018 19.376L84.552 6.00853C84.1148 5.20569 84.4577 4.58812 85.3946 4.58812H87.0185C87.8611 4.58812 88.2359 4.74193 88.5482 5.3292L91.545 11.4105C92.2321 12.7995 93.0122 14.4052 93.6368 15.7941C94.2614 14.4355 94.9791 12.8927 95.6661 11.534L98.7254 5.3292C99.0059 4.74309 99.4125 4.58812 100.255 4.58812H101.879C102.816 4.58812 103.159 5.20569 102.722 6.00853L94.5725 21.2905C93.6356 23.05 92.5432 24.0381 90.1073 24.0381H88.3278C87.4546 24.0369 87.1423 23.7282 87.1423 22.8636Z" fill="white"/>
<path d="M122.675 12.2437V12.6142C122.675 13.4788 122.363 13.7876 121.489 13.7876H108.687C109.124 15.4236 110.779 16.9978 114.307 16.9978C117.461 16.9978 118.897 15.9794 119.552 15.5156C120.27 14.9913 120.77 15.1754 121.145 15.8862L121.675 16.9046C121.955 17.4289 121.8 17.8309 121.331 18.2318C120.644 18.8179 118.302 20.2698 114.306 20.2698C108.936 20.2698 105.189 17.1516 105.189 12.274C105.189 7.48837 108.78 4.33992 113.931 4.33992C119.085 4.33992 122.675 7.45807 122.675 12.2437ZM108.687 10.793H119.21C118.804 9.18727 117.148 7.67481 113.932 7.67481C110.716 7.67481 109.092 9.18727 108.687 10.793Z" fill="white"/>
<path d="M145.443 11.7181V18.8493C145.443 19.7139 145.131 20.0227 144.257 20.0227H143.008C142.133 20.0227 141.821 19.7139 141.821 18.8493V11.8102C141.821 9.30962 140.322 7.95096 137.793 7.95096C135.826 7.95096 133.484 9.15465 132.328 10.4201V18.8482C132.328 19.7128 132.016 20.0216 131.142 20.0216H129.892C129.018 20.0216 128.706 19.7128 128.706 18.8482V7.95096H127.551C126.676 7.95096 126.364 7.64218 126.364 6.77758V5.75917C126.364 4.89457 126.676 4.58578 127.551 4.58578H130.579C131.454 4.58578 131.766 4.89457 131.766 5.75917V6.62377C133.452 5.26511 135.732 4.33876 138.198 4.33876C142.883 4.33992 145.443 7.08753 145.443 11.7181Z" fill="white"/>
<path d="M167.001 5.76033V20.2092C167.001 23.4194 163.505 25.5191 159.039 25.5191C154.824 25.5191 152.826 24.284 151.92 23.4508C151.483 23.05 151.421 22.5245 151.639 22.0001L152.106 20.9503C152.451 20.1789 153.012 20.0239 153.699 20.5797C154.791 21.4443 155.853 22.1539 159.006 22.1854C161.816 22.1854 163.377 21.167 163.377 19.9318V18.4497C162.253 19.1593 160.879 19.6231 158.912 19.6231C153.854 19.6231 150.356 16.6902 150.356 11.9978C150.356 7.30543 153.853 4.34109 158.912 4.34109C161.097 4.34109 162.534 4.95866 163.502 5.69974C163.752 5.17539 164.252 4.58812 164.876 4.58812H165.813C166.689 4.58695 167.001 4.89574 167.001 5.76033ZM163.38 14.4669V9.52752C162.505 8.47765 161.225 7.82978 158.914 7.82978C156.136 7.82978 154.106 9.404 154.106 11.9978C154.106 14.5916 156.136 16.1344 158.914 16.1344C161.194 16.1332 162.475 15.4853 163.38 14.4669Z" fill="white"/>
<defs>
<filter id="filter0_f_1_4226" x="-1.44075" y="-1.29798" width="25.1312" height="27.2395" filterUnits="userSpaceOnUse" color-interpolation-filters="sRGB">
<feFlood flood-opacity="0" result="BackgroundImageFix"/>
<feBlend mode="normal" in="SourceGraphic" in2="BackgroundImageFix" result="shape"/>
<feGaussianBlur stdDeviation="0.720281" result="effect1_foregroundBlur_1_4226"/>
</filter>
</defs>
</svg>
