<svg width="96" height="16" viewBox="0 0 96 16" fill="none" xmlns="http://www.w3.org/2000/svg">
<path d="M3.06779 14.2606C1.57119 15.1152 0.496094 14.403 0.496094 13.1362C0.496094 11.7877 0.496094 7.74134 0.496094 7.74134C0.496094 7.74134 0.496094 3.69501 0.496094 2.34646C0.496094 1.07967 1.57052 0.367474 3.06779 1.22211C5.39872 2.55286 12.3908 6.54644 12.3908 6.54644C13.3206 7.07729 13.3206 8.40474 12.3908 8.93559C12.3908 8.93625 5.39872 12.9298 3.06779 14.2606Z" fill="#00C1FF"/>
<path d="M10.7633 14.2596C9.26675 15.1142 8.19165 14.402 8.19165 13.1353C8.19165 11.7867 8.19165 7.74037 8.19165 7.74037C8.19165 7.74037 8.19165 3.69404 8.19165 2.34548C8.19165 1.07869 9.26608 0.366497 10.7633 1.22113C13.0429 2.52287 19.8817 6.42874 19.8817 6.42874C20.9027 7.01169 20.9027 8.46905 19.8817 9.052C19.881 9.052 13.0429 12.9579 10.7633 14.2596Z" fill="#6FE4FF"/>
<mask id="mask0_1_4296" style="mask-type:alpha" maskUnits="userSpaceOnUse" x="8" y="0" width="13" height="15">
<path d="M10.7631 14.2596C9.2665 15.1142 8.19141 14.402 8.19141 13.1353C8.19141 11.7867 8.19141 7.74037 8.19141 7.74037C8.19141 7.74037 8.19141 3.69404 8.19141 2.34548C8.19141 1.07869 9.26584 0.366497 10.7631 1.22113C13.0427 2.52287 19.8814 6.42874 19.8814 6.42874C20.9025 7.01169 20.9025 8.46905 19.8814 9.052C19.8807 9.052 13.0427 12.9579 10.7631 14.2596Z" fill="#6FE4FF"/>
</mask>
<g mask="url(#mask0_1_4296)">
<g filter="url(#filter0_f_1_4296)">
<path d="M3.06779 14.2606C1.57119 15.1152 0.496094 14.403 0.496094 13.1362C0.496094 11.7877 0.496094 7.74134 0.496094 7.74134C0.496094 7.74134 0.496094 3.69501 0.496094 2.34646C0.496094 1.07967 1.57052 0.367474 3.06779 1.22211C5.39872 2.55286 12.3908 6.54644 12.3908 6.54644C13.3206 7.07729 13.3206 8.40474 12.3908 8.93559C12.3908 8.93625 5.39872 12.9298 3.06779 14.2606Z" fill="#009EE4"/>
</g>
</g>
<path d="M25.6083 10.1425L25.8731 9.54832C26.0498 9.14672 26.3679 9.04187 26.7741 9.33862C27.5517 9.89782 28.8236 10.3172 30.5203 10.3172C31.9695 10.3172 32.5878 9.95058 32.5878 9.51337C32.5878 9.02407 32.0755 8.88427 31.2272 8.77941L29.3011 8.53542C26.9862 8.23867 25.8197 7.41701 25.8197 5.9847C25.8197 4.44755 27.0922 3.22428 30.0427 3.22428C31.6861 3.22428 32.7465 3.46894 33.4354 3.73073C34.1951 4.02748 34.3011 4.27213 34.3011 4.8841V5.67015C34.3011 6.15945 34.1244 6.33421 33.6295 6.33421H33.0819C32.5871 6.33421 32.4103 6.15945 32.4103 5.67015V5.40769C32.0922 5.30284 31.2972 5.14589 30.3609 5.14589C28.7355 5.14589 27.9399 5.44264 27.9399 5.93195C27.9399 6.2986 28.4168 6.5083 29.2824 6.63095L31.1732 6.87561C33.4881 7.17236 34.7073 7.85422 34.7073 9.49623C34.7073 11.1732 33.0993 12.2395 30.2368 12.2395C28.134 12.2395 26.438 11.5754 25.7664 10.9641C25.5196 10.7366 25.4842 10.4392 25.6083 10.1425Z" fill="black"/>
<path d="M46.4626 12.099H45.4909C45.0141 12.099 44.8547 12.0291 44.6252 11.6796L42.7878 9.00626C42.5231 8.63961 42.3283 8.55191 41.7808 8.55191H39.9434V11.435C39.9434 11.9243 39.7666 12.099 39.2718 12.099H38.5648C38.0699 12.099 37.8932 11.9243 37.8932 11.435V2.75212H37.2396C36.7447 2.75212 36.568 2.57737 36.568 2.08806V1.51171C36.568 1.02241 36.7447 0.847656 37.2396 0.847656H39.2718C39.7666 0.847656 39.9434 1.02241 39.9434 1.51171V6.596H41.5867C42.1342 6.596 42.329 6.50896 42.5938 6.14165L44.131 3.80063C44.3785 3.43398 44.5372 3.36408 45.0147 3.36408H45.9864C46.5167 3.36408 46.6227 3.78349 46.3219 4.22004L44.6079 6.78856C44.4312 7.03321 44.2191 7.29501 44.007 7.50471C44.2191 7.67947 44.5192 7.97621 44.6432 8.15097L46.7988 11.2609C47.0989 11.6803 46.9928 12.099 46.4626 12.099Z" fill="black"/>
<path d="M49.808 13.7068V13.1304C49.808 12.6411 49.9847 12.4663 50.4796 12.4663H51.3279C51.8401 12.4663 52.0875 12.3615 52.2823 11.9599L52.3883 11.7331L48.342 4.16794C48.0946 3.71359 48.2887 3.36408 48.8189 3.36408H49.7379C50.2148 3.36408 50.4269 3.45113 50.6036 3.78349L52.2996 7.22511C52.6884 8.01117 53.13 8.91987 53.4834 9.70593C53.8369 8.93702 54.2431 8.06392 54.6319 7.29501L56.3633 3.78349C56.522 3.45179 56.7521 3.36408 57.2289 3.36408H58.148C58.6782 3.36408 58.8723 3.71359 58.6248 4.16794L54.013 12.8165C53.4828 13.8123 52.8645 14.3715 51.486 14.3715H50.4789C49.9847 14.3708 49.808 14.1961 49.808 13.7068Z" fill="black"/>
<path d="M69.9173 7.69661V7.90631C69.9173 8.39562 69.7406 8.57037 69.2457 8.57037H62.0008C62.2483 9.49623 63.1846 10.3871 65.1814 10.3871C66.9662 10.3871 67.7792 9.81078 68.15 9.54832C68.5561 9.25157 68.8389 9.35577 69.051 9.75802L69.3511 10.3344C69.5098 10.6311 69.4218 10.8586 69.1564 11.0855C68.7675 11.4172 67.4423 12.2388 65.1808 12.2388C62.1416 12.2388 60.0214 10.4742 60.0214 7.71376C60.0214 5.00543 62.0535 3.22362 64.9687 3.22362C67.8852 3.22362 69.9173 4.98829 69.9173 7.69661ZM62.0008 6.87561H67.9559C67.7265 5.9669 66.7894 5.11094 64.9694 5.11094C63.1493 5.11094 62.2303 5.9669 62.0008 6.87561Z" fill="black"/>
<path d="M82.8025 7.3992V11.435C82.8025 11.9243 82.6258 12.099 82.1309 12.099H81.4239C80.9291 12.099 80.7523 11.9243 80.7523 11.435V7.4513C80.7523 6.03614 79.904 5.26723 78.4728 5.26723C77.3596 5.26723 76.0345 5.94843 75.3802 6.66459V11.4343C75.3802 11.9236 75.2034 12.0984 74.7086 12.0984H74.0016C73.5068 12.0984 73.33 11.9236 73.33 11.4343V5.26723H72.6764C72.1816 5.26723 72.0048 5.09248 72.0048 4.60317V4.02682C72.0048 3.53752 72.1816 3.36276 72.6764 3.36276H74.3905C74.8853 3.36276 75.0621 3.53752 75.0621 4.02682V4.51613C76.0164 3.74722 77.3063 3.22296 78.7022 3.22296C81.3532 3.22362 82.8025 4.77858 82.8025 7.3992Z" fill="black"/>
<path d="M95.0027 4.02748V12.2046C95.0027 14.0213 93.0239 15.2096 90.4969 15.2096C88.1113 15.2096 86.9808 14.5106 86.468 14.0391C86.2205 13.8123 86.1852 13.5149 86.3086 13.2181L86.5733 12.624C86.7681 12.1874 87.0855 12.0997 87.4744 12.4143C88.0926 12.9036 88.6935 13.3052 90.4782 13.323C92.0682 13.323 92.9519 12.7466 92.9519 12.0476V11.2088C92.3156 11.6104 91.538 11.8729 90.4249 11.8729C87.5624 11.8729 85.5829 10.213 85.5829 7.55747C85.5829 4.9019 87.5617 3.22428 90.4249 3.22428C91.6614 3.22428 92.4744 3.57379 93.0226 3.99319C93.164 3.69644 93.4467 3.36408 93.8002 3.36408H94.3304C94.826 3.36342 95.0027 3.53818 95.0027 4.02748ZM92.9532 8.95482V6.15945C92.4583 5.5653 91.7341 5.19865 90.4262 5.19865C88.8536 5.19865 87.7051 6.08955 87.7051 7.55747C87.7051 9.02539 88.8536 9.89849 90.4262 9.89849C91.716 9.89783 92.441 9.53118 92.9532 8.95482Z" fill="black"/>
<defs>
<filter id="filter0_f_1_4296" x="-0.319167" y="0.0333716" width="14.2226" height="15.4162" filterUnits="userSpaceOnUse" color-interpolation-filters="sRGB">
<feFlood flood-opacity="0" result="BackgroundImageFix"/>
<feBlend mode="normal" in="SourceGraphic" in2="BackgroundImageFix" result="shape"/>
<feGaussianBlur stdDeviation="0.407631" result="effect1_foregroundBlur_1_4296"/>
</filter>
</defs>
</svg>
