<svg width="71" height="16" viewBox="0 0 71 16" fill="none" xmlns="http://www.w3.org/2000/svg">
<path d="M0.608296 10.1425L0.873067 9.54832C1.0498 9.14672 1.36793 9.04187 1.77409 9.33862C2.55174 9.89782 3.82358 10.3172 5.52026 10.3172C6.9695 10.3172 7.58775 9.95058 7.58775 9.51337C7.58775 9.02407 7.07555 8.88426 6.22721 8.77941L4.30111 8.53542C1.98618 8.23867 0.819713 7.41701 0.819713 5.9847C0.819713 4.44755 2.09222 3.22428 5.04273 3.22428C6.68606 3.22428 7.74648 3.46894 8.43542 3.73073C9.19506 4.02748 9.3011 4.27213 9.3011 4.8841V5.67015C9.3011 6.15945 9.12436 6.33421 8.6295 6.33421H8.08195C7.58709 6.33421 7.41035 6.15945 7.41035 5.67015V5.40769C7.09222 5.30284 6.29724 5.14589 5.36086 5.14589C3.73555 5.14589 2.93989 5.44264 2.93989 5.93195C2.93989 6.2986 3.41675 6.5083 4.28243 6.63095L6.17319 6.87561C8.48811 7.17236 9.70727 7.85422 9.70727 9.49623C9.70727 11.1732 8.09929 12.2395 5.23681 12.2395C3.13397 12.2395 1.43796 11.5754 0.766359 10.9641C0.519594 10.7366 0.484247 10.4392 0.608296 10.1425Z" fill="white"/>
<path d="M21.4626 12.099H20.4909C20.0141 12.099 19.8547 12.0291 19.6252 11.6796L17.7878 9.00626C17.5231 8.63961 17.3283 8.55191 16.7808 8.55191H14.9434V11.435C14.9434 11.9243 14.7666 12.099 14.2718 12.099H13.5648C13.0699 12.099 12.8932 11.9243 12.8932 11.435V2.75212H12.2396C11.7447 2.75212 11.568 2.57737 11.568 2.08806V1.51171C11.568 1.02241 11.7447 0.847656 12.2396 0.847656H14.2718C14.7666 0.847656 14.9434 1.02241 14.9434 1.51171V6.596H16.5867C17.1342 6.596 17.329 6.50896 17.5938 6.14165L19.131 3.80063C19.3785 3.43398 19.5372 3.36408 20.0147 3.36408H20.9864C21.5167 3.36408 21.6227 3.78349 21.3219 4.22004L19.6079 6.78856C19.4312 7.03321 19.2191 7.29501 19.007 7.50471C19.2191 7.67947 19.5192 7.97621 19.6432 8.15097L21.7988 11.2609C22.0989 11.6803 21.9928 12.099 21.4626 12.099Z" fill="white"/>
<path d="M24.808 13.7068V13.1304C24.808 12.6411 24.9847 12.4663 25.4796 12.4663H26.3279C26.8401 12.4663 27.0875 12.3615 27.2823 11.9599L27.3883 11.7331L23.342 4.16794C23.0946 3.71359 23.2887 3.36408 23.8189 3.36408H24.7379C25.2148 3.36408 25.4269 3.45113 25.6036 3.78349L27.2996 7.22511C27.6884 8.01117 28.13 8.91988 28.4834 9.70593C28.8369 8.93702 29.2431 8.06392 29.6319 7.29501L31.3633 3.78349C31.522 3.45179 31.7521 3.36408 32.2289 3.36408H33.148C33.6782 3.36408 33.8723 3.71359 33.6248 4.16794L29.013 12.8165C28.4828 13.8123 27.8645 14.3715 26.486 14.3715H25.4789C24.9847 14.3708 24.808 14.1961 24.808 13.7068Z" fill="white"/>
<path d="M44.9173 7.69661V7.90631C44.9173 8.39562 44.7406 8.57037 44.2457 8.57037H37.0008C37.2483 9.49623 38.1846 10.3871 40.1814 10.3871C41.9662 10.3871 42.7792 9.81078 43.15 9.54832C43.5561 9.25157 43.8389 9.35577 44.051 9.75802L44.3511 10.3344C44.5098 10.6311 44.4218 10.8586 44.1564 11.0855C43.7675 11.4172 42.4423 12.2388 40.1808 12.2388C37.1416 12.2388 35.0214 10.4742 35.0214 7.71376C35.0214 5.00543 37.0535 3.22362 39.9687 3.22362C42.8852 3.22362 44.9173 4.98829 44.9173 7.69661ZM37.0008 6.87561H42.9559C42.7265 5.9669 41.7894 5.11094 39.9694 5.11094C38.1493 5.11094 37.2303 5.9669 37.0008 6.87561Z" fill="white"/>
<path d="M57.8025 7.3992V11.435C57.8025 11.9243 57.6258 12.099 57.1309 12.099H56.4239C55.9291 12.099 55.7523 11.9243 55.7523 11.435V7.4513C55.7523 6.03614 54.904 5.26723 53.4728 5.26723C52.3596 5.26723 51.0345 5.94843 50.3802 6.66459V11.4343C50.3802 11.9236 50.2034 12.0984 49.7086 12.0984H49.0016C48.5068 12.0984 48.33 11.9236 48.33 11.4343V5.26723H47.6764C47.1816 5.26723 47.0048 5.09248 47.0048 4.60317V4.02682C47.0048 3.53752 47.1816 3.36276 47.6764 3.36276H49.3905C49.8853 3.36276 50.0621 3.53752 50.0621 4.02682V4.51613C51.0164 3.74722 52.3063 3.22296 53.7022 3.22296C56.3532 3.22362 57.8025 4.77858 57.8025 7.3992Z" fill="white"/>
<path d="M70.0027 4.02748V12.2046C70.0027 14.0213 68.0239 15.2096 65.4969 15.2096C63.1113 15.2096 61.9808 14.5106 61.468 14.0391C61.2205 13.8123 61.1852 13.5149 61.3086 13.2181L61.5733 12.624C61.7681 12.1874 62.0855 12.0997 62.4744 12.4143C63.0926 12.9036 63.6935 13.3052 65.4782 13.323C67.0682 13.323 67.9519 12.7466 67.9519 12.0476V11.2088C67.3156 11.6104 66.538 11.8729 65.4249 11.8729C62.5624 11.8729 60.5829 10.213 60.5829 7.55747C60.5829 4.9019 62.5617 3.22428 65.4249 3.22428C66.6614 3.22428 67.4743 3.57379 68.0226 3.99319C68.164 3.69644 68.4467 3.36408 68.8002 3.36408H69.3304C69.826 3.36343 70.0027 3.53818 70.0027 4.02748ZM67.9532 8.95482V6.15945C67.4584 5.5653 66.7341 5.19865 65.4262 5.19865C63.8536 5.19865 62.7051 6.08955 62.7051 7.55747C62.7051 9.02538 63.8536 9.89849 65.4262 9.89849C66.716 9.89783 67.441 9.53117 67.9532 8.95482Z" fill="white"/>
</svg>
