<svg width="84" height="16" viewBox="0 0 84 16" fill="none" xmlns="http://www.w3.org/2000/svg">
<path d="M0.221025 12.0669C0.870994 12.6788 2.51302 13.3432 4.54845 13.3432C7.31937 13.3432 8.87587 12.2767 8.87587 10.5983C8.87587 8.95481 7.69566 8.27295 5.45498 7.97573L3.62481 7.73097C2.78669 7.60858 2.32487 7.39878 2.32487 7.03163C2.32487 6.54209 3.09457 6.24487 4.66818 6.24487C5.57471 6.24487 6.34441 6.40222 6.65229 6.50713V6.76938C6.65229 7.25891 6.82334 7.43375 7.30226 7.43375H7.8325C8.31142 7.43375 8.48247 7.25891 8.48247 6.76938V5.98262C8.48247 5.3707 8.37984 5.12593 7.64435 4.82871C6.97728 4.56646 5.95101 4.32169 4.3603 4.32169C1.50386 4.32169 0.272339 5.54554 0.272339 7.08408C0.272339 8.51772 1.40123 9.33944 3.64191 9.63666L5.5063 9.88143C6.32731 9.98633 6.82334 10.1262 6.82334 10.6157C6.82334 11.0528 6.22468 11.42 4.82212 11.42C3.18009 11.42 1.94857 11.0004 1.19598 10.4409C0.802576 10.1437 0.494697 10.2486 0.323652 10.6507L0.0670855 11.2451C-0.0526456 11.5424 -0.0184366 11.8396 0.221025 12.0669Z" fill="white"/>
<path d="M20.8025 12.3641L18.7158 9.25203C18.596 9.07719 18.3053 8.77997 18.1 8.60514C18.3053 8.39534 18.5105 8.13309 18.6815 7.88832L20.3407 5.31825C20.6315 4.88117 20.5288 4.46156 20.0157 4.46156H19.075C18.6131 4.46156 18.4592 4.5315 18.2197 4.89865L16.7316 7.24143C16.4751 7.60858 16.2869 7.696 15.7567 7.696H14.166V2.60832C14.166 2.11878 13.9949 1.94395 13.516 1.94395H11.549C11.0701 1.94395 10.899 2.11878 10.899 2.60832V3.18527C10.899 3.67481 11.0701 3.84964 11.549 3.84964H12.1819V12.5389C12.1819 13.0285 12.3529 13.2033 12.8318 13.2033H13.516C13.9949 13.2033 14.166 13.0285 14.166 12.5389V9.65414H15.9448C16.4751 9.65414 16.6632 9.74156 16.9198 10.1087L18.6987 12.7837C18.921 13.1334 19.075 13.2033 19.5368 13.2033H20.4775C20.9906 13.2033 21.0933 12.7837 20.8025 12.3641Z" fill="white"/>
<path d="M24.8898 15.4761H25.8648C27.1989 15.4761 27.7976 14.9167 28.3107 13.9201L32.775 5.2658C33.0145 4.81123 32.8263 4.46156 32.3132 4.46156H31.4237C30.9619 4.46156 30.7396 4.54898 30.5856 4.88117L28.9094 8.39534C28.5331 9.16461 28.1397 10.0388 27.7976 10.8081C27.4555 10.0213 27.0279 9.11216 26.6516 8.3254L25.0096 4.88117C24.8385 4.54898 24.6333 4.46156 24.1715 4.46156H23.282C22.7689 4.46156 22.5807 4.81123 22.8202 5.2658L26.7371 12.8361L26.6345 13.0634C26.4464 13.4655 26.2069 13.5704 25.7109 13.5704H24.8898C24.4109 13.5704 24.2399 13.7453 24.2399 14.2348V14.8118C24.2399 15.3013 24.4109 15.4761 24.8898 15.4761Z" fill="white"/>
<path d="M34.7263 12.0669C35.3762 12.6788 37.0183 13.3432 39.0537 13.3432C41.8246 13.3432 43.3811 12.2767 43.3811 10.5983C43.3811 8.95481 42.2009 8.27295 39.9602 7.97573L38.13 7.73097C37.2919 7.60858 36.8301 7.39878 36.8301 7.03163C36.8301 6.54209 37.5998 6.24487 39.1734 6.24487C40.0799 6.24487 40.8496 6.40222 41.1575 6.50713V6.76938C41.1575 7.25891 41.3286 7.43375 41.8075 7.43375H42.3377C42.8167 7.43375 42.9877 7.25891 42.9877 6.76938V5.98262C42.9877 5.3707 42.8851 5.12593 42.1496 4.82871C41.4825 4.56646 40.4562 4.32169 38.8655 4.32169C36.0091 4.32169 34.7776 5.54554 34.7776 7.08408C34.7776 8.51772 35.9065 9.33944 38.1472 9.63666L40.0115 9.88143C40.8326 9.98633 41.3286 10.1262 41.3286 10.6157C41.3286 11.0528 40.7299 11.42 39.3274 11.42C37.6853 11.42 36.4538 11.0004 35.7012 10.4409C35.3078 10.1437 34.9999 10.2486 34.8289 10.6507L34.5723 11.2451C34.4526 11.5424 34.4868 11.8396 34.7263 12.0669Z" fill="white"/>
<path d="M55.3077 12.3641L53.221 9.25203C53.1013 9.07719 52.8105 8.77997 52.6052 8.60514C52.8105 8.39534 53.0157 8.13309 53.1868 7.88832L54.8459 5.31825C55.1367 4.88117 55.0341 4.46156 54.5209 4.46156H53.5802C53.1184 4.46156 52.9644 4.5315 52.725 4.89865L51.2369 7.24143C50.9803 7.60858 50.7922 7.696 50.2619 7.696H48.6712V2.60832C48.6712 2.11878 48.5002 1.94395 48.0212 1.94395H46.0542C45.5753 1.94395 45.4043 2.11878 45.4043 2.60832V3.18527C45.4043 3.67481 45.5753 3.84964 46.0542 3.84964H46.6871V12.5389C46.6871 13.0285 46.8581 13.2033 47.3371 13.2033H48.0212C48.5002 13.2033 48.6712 13.0285 48.6712 12.5389V9.65414H50.4501C50.9803 9.65414 51.1685 9.74156 51.425 10.1087L53.2039 12.7837C53.4262 13.1334 53.5802 13.2033 54.042 13.2033H54.9828C55.4959 13.2033 55.5985 12.7837 55.3077 12.3641Z" fill="white"/>
<path d="M59.8569 3.46501C59.0188 3.46501 58.403 2.88805 58.403 2.11878C58.403 1.36699 59.0188 0.790039 59.8569 0.790039C60.6608 0.790039 61.2766 1.36699 61.2766 2.11878C61.2766 2.88805 60.6608 3.46501 59.8569 3.46501ZM59.6174 13.2033H60.3016C60.7805 13.2033 60.9516 13.0285 60.9516 12.5389V5.12593C60.9516 4.6364 60.7805 4.46156 60.3016 4.46156H58.3346C57.8557 4.46156 57.6846 4.6364 57.6846 5.12593V5.70289C57.6846 6.19242 57.8557 6.36726 58.3346 6.36726H58.9675V12.5389C58.9675 13.0285 59.1385 13.2033 59.6174 13.2033Z" fill="white"/>
<path d="M66.3578 1.94395H64.3908C63.9119 1.94395 63.7409 2.11878 63.7409 2.60832V3.18527C63.7409 3.67481 63.9119 3.84964 64.3908 3.84964H65.0237V12.5389C65.0237 13.0285 65.1947 13.2033 65.6737 13.2033H66.3578C66.8368 13.2033 67.0078 13.0285 67.0078 12.5389V2.60832C67.0078 2.11878 66.8368 1.94395 66.3578 1.94395Z" fill="white"/>
<path d="M71.809 1.94395H69.842C69.3631 1.94395 69.192 2.11878 69.192 2.60832V3.18527C69.192 3.67481 69.3631 3.84964 69.842 3.84964H70.4748V12.5389C70.4748 13.0285 70.6459 13.2033 71.1248 13.2033H71.809C72.2879 13.2033 72.459 13.0285 72.459 12.5389V2.60832C72.459 2.11878 72.2879 1.94395 71.809 1.94395Z" fill="white"/>
<path d="M75.0559 12.0669C75.7058 12.6788 77.3479 13.3432 79.3833 13.3432C82.1542 13.3432 83.7107 12.2767 83.7107 10.5983C83.7107 8.95481 82.5305 8.27295 80.2898 7.97573L78.4597 7.73097C77.6215 7.60858 77.1597 7.39878 77.1597 7.03163C77.1597 6.54209 77.9294 6.24487 79.503 6.24487C80.4096 6.24487 81.1793 6.40222 81.4872 6.50713V6.76938C81.4872 7.25891 81.6582 7.43375 82.1371 7.43375H82.6674C83.1463 7.43375 83.3173 7.25891 83.3173 6.76938V5.98262C83.3173 5.3707 83.2147 5.12593 82.4792 4.82871C81.8121 4.56646 80.7859 4.32169 79.1951 4.32169C76.3387 4.32169 75.1072 5.54554 75.1072 7.08408C75.1072 8.51772 76.2361 9.33944 78.4768 9.63666L80.3412 9.88143C81.1622 9.98633 81.6582 10.1262 81.6582 10.6157C81.6582 11.0528 81.0595 11.42 79.657 11.42C78.0149 11.42 76.7834 11.0004 76.0308 10.4409C75.6374 10.1437 75.3296 10.2486 75.1585 10.6507L74.9019 11.2451C74.7822 11.5424 74.8164 11.8396 75.0559 12.0669Z" fill="white"/>
</svg>
